<svg width="48" height="25" viewBox="0 0 48 25" fill="none" xmlns="http://www.w3.org/2000/svg">
<path fill-rule="evenodd" clip-rule="evenodd" d="M13.421 0.00719149C14.69 -0.0427242 15.9563 0.167582 17.1405 0.626374C18.2405 1.14273 19.2798 1.77901 20.2396 2.52428C20.4545 2.72627 20.724 2.86194 21.0145 2.91268C21.5052 2.91268 21.828 2.12487 21.983 0.549449H22.8739C22.7706 2.02157 22.7188 4.60423 22.7188 8.29743H21.8279C21.5701 6.63696 20.9046 5.06627 19.8909 3.72607C19.1895 2.92923 18.3655 2.24851 17.4501 1.71089C16.5482 1.22079 15.5321 0.980033 14.5062 1.01352C14.1024 1.0059 13.7008 1.03201 13.3052 1.09063C13.2811 1.08595 13.2569 1.08136 13.2328 1.07686C14.1109 2.93638 11.553 7.1088 9.3577 9.30406C8.0424 10.6603 6.89736 12.1709 5.94824 13.8034C5.88638 13.7822 5.82074 13.7687 5.75238 13.7641L5.43029 13.7423C5.01047 13.7139 4.6467 14.031 4.6183 14.4508L4.61745 14.4634C4.58905 14.8832 4.90672 15.2476 5.32653 15.276L5.64863 15.2978C5.66879 15.2992 5.68881 15.2998 5.70868 15.2996C5.74474 16.0259 5.91378 16.7429 6.21072 17.414C6.66807 18.4476 7.40993 19.3302 8.35011 19.9575C11.5655 21.9462 15.6075 20.2539 15.6075 20.2539L16.3521 19.9219V18.0527C16.3939 17.2527 16.2892 16.4516 16.0425 15.6895C15.962 15.4562 15.8292 15.2448 15.6547 15.0703C15.4802 14.8958 15.2682 14.7624 15.0349 14.6819C14.2672 14.4566 13.4724 14.3399 12.6723 14.3338V13.7527H35.3277V14.3338C34.5276 14.3399 33.7328 14.4566 32.9651 14.6819C32.7318 14.7624 32.5198 14.8958 32.3453 15.0703C32.1708 15.2448 32.038 15.4562 31.9575 15.6895C31.7108 16.4516 31.6061 17.2527 31.6479 18.0527V19.9219L32.3925 20.2539C32.3925 20.2539 36.4345 21.9462 39.6499 19.9575C40.5901 19.3302 41.3319 18.4476 41.7893 17.414C42.0862 16.7429 42.2553 16.0259 42.2913 15.2996C42.3112 15.2998 42.3312 15.2992 42.3514 15.2978L42.6735 15.276C43.0933 15.2476 43.411 14.8832 43.3826 14.4634L43.3817 14.4508C43.3533 14.031 42.9895 13.7139 42.5697 13.7423L42.2476 13.7641C42.1793 13.7687 42.1136 13.7822 42.0518 13.8034C41.1026 12.1709 39.9576 10.6603 38.6423 9.30406C36.447 7.1088 33.8891 2.93638 34.7672 1.07686C34.7431 1.08136 34.7189 1.08595 34.6948 1.09063C34.2992 1.03201 33.8976 1.0059 33.4938 1.01352C32.4679 0.980033 31.4518 1.22079 30.5499 1.71089C29.6345 2.24851 28.8105 2.92923 28.1091 3.72607C27.0954 5.06627 26.4299 6.63696 26.1721 8.29743H25.2812C25.2812 4.60423 25.2294 2.02157 25.1261 0.549449H26.017C26.172 2.12487 26.4948 2.91268 26.9855 2.91268C27.276 2.86194 27.5455 2.72627 27.7604 2.52428C28.7202 1.77901 29.7595 1.14273 30.8595 0.626374C32.0437 0.167582 33.31 -0.0427242 34.579 0.00719149C37.001 -0.0247347 39.3943 0.533414 41.552 1.63396C43.5265 2.62879 45.1689 4.17703 46.2785 6.08931C47.4523 8.13812 48.0416 10.4692 47.9828 12.8297C48.0734 14.4583 47.8046 16.0872 47.1953 17.6003C46.5861 19.1134 45.6514 20.4739 44.4575 21.5853C42.1073 23.6514 38.8272 24.6837 34.6175 24.6837C32.5603 24.6763 30.5275 24.2364 28.6514 23.3924C28.0628 23.0245 27.4024 22.7867 26.7144 22.695C26.2753 22.695 26.0043 23.1732 25.901 24.1288H25.1261V17.6722C25.1446 16.96 25.1059 16.2469 25.01 15.541C24.996 15.3689 24.9474 15.2022 24.8675 15.0492C24.7877 14.8961 24.6784 14.7606 24.5453 14.6507V14.6507C24.2062 14.4673 23.7938 14.4673 23.4547 14.6507V14.6507C23.3216 14.7606 23.2123 14.8961 23.1325 15.0492C23.0526 15.2022 23.004 15.3689 22.99 15.541C22.8941 16.2469 22.8554 16.96 22.8739 17.6722V24.1288H22.099C21.9957 23.1732 21.7247 22.695 21.2856 22.695C20.5976 22.7867 19.9372 23.0245 19.3486 23.3924C17.4725 24.2364 15.4397 24.6763 13.3825 24.6837C9.17281 24.6837 5.89268 23.6514 3.54246 21.5853C2.3486 20.4739 1.41394 19.1134 0.804692 17.6003C0.195448 16.0872 -0.0734193 14.4583 0.0171563 12.8297C-0.0416241 10.4692 0.547707 8.13812 1.72149 6.08931C2.83111 4.17703 4.47352 2.62879 6.44796 1.63396C8.60574 0.533414 10.999 -0.0247347 13.421 0.00719149Z" fill="black"/>
</svg>
